<svg width="430" height="119" viewBox="0 0 430 119" fill="none" xmlns="http://www.w3.org/2000/svg">
<path fill-rule="evenodd" clip-rule="evenodd" d="M422.807 21.1632L422.807 21.1644C418.528 33.8514 414.334 46.2845 409.811 58.7175C410.465 60.8478 411.128 63.0097 411.799 65.1999L411.847 65.3557L411.847 65.3567L411.849 65.3641L411.851 65.3689L411.852 65.373C416.978 82.0903 422.606 100.449 428.726 119C422.976 117.867 417.054 116.778 410.972 115.735C409.677 111.593 408.382 107.737 407.087 103.88C405.157 98.1314 403.227 92.3825 401.297 85.685C399.357 91.9444 397.417 97.2408 395.477 102.537C394.266 105.842 393.055 109.148 391.845 112.687C386.508 111.898 381.067 111.143 375.526 110.423C378.213 102.863 380.802 95.3031 383.39 87.743L383.39 87.7424L383.392 87.7381C386.704 78.0628 390.017 68.3875 393.537 58.7122C389.186 46.175 385.446 33.9978 381.748 21.9571L381.747 21.9533L381.745 21.9482L381.745 21.9467L381.744 21.9445C379.487 14.5958 377.245 7.29791 374.89 0H391.993C394.415 7.20299 396.22 13.2873 398.179 19.8889L398.179 19.8893C399.358 23.8608 400.592 28.0195 402.049 32.7217C403.157 29.4239 404.204 26.3586 405.223 23.3713C407.773 15.8996 410.157 8.91547 412.928 0H430C427.531 7.15864 425.156 14.1988 422.807 21.1624L422.807 21.1632ZM35.3464 3.50989V112.565C40.4087 111.822 45.565 111.109 50.8104 110.427V3.50989H35.3464ZM62.9607 4.39338V108.924C68.0404 108.327 73.1964 107.758 78.4247 107.22V52.8819C78.4247 52.8819 89.2642 83.5961 97.0467 105.458C103.628 104.888 110.31 104.365 117.085 103.891V3.50989H101.621V67.5896L78.4247 4.39338H62.9607ZM160.014 16.3605L130.953 102.997C137.194 102.628 143.507 102.3 149.888 102.015L157.743 77.759H182.971L190.431 100.795C197.073 100.691 203.771 100.632 210.519 100.619L179.05 10.6058L178.91 10.6829C177.337 6.44734 173.901 3.50989 169.916 3.50989C164.443 3.50989 160.007 9.0503 160.007 15.8847C160.007 16.0441 160.009 16.2027 160.014 16.3605ZM225.333 53.2333V100.667C231.025 100.715 236.678 100.796 242.29 100.909V66.7942H265.182V48.713H242.29V21.5911H272.83V3.50989H225.333V53.2333ZM284.98 3.50989V102.422C290.934 102.727 296.827 103.068 302.653 103.445C302.962 103.465 303.271 103.485 303.579 103.505C313.792 104.174 323.801 104.952 333.581 105.834V91.5354V82.3517C323.595 81.467 313.389 80.6892 302.987 80.0242V3.50989H284.98ZM345.732 2.33993V106.995C350.959 107.522 356.115 108.08 361.196 108.667V2.33993H345.732ZM163.353 60.4342L170.357 38.8063L177.361 60.4342H163.353ZM24.3006 3.50989V74.2821V77.0378L24.2547 77.0327C23.4865 99.9879 13.1682 118.166 0.552287 118.166C0.367692 118.166 0.183589 118.162 0 118.155V98.0263C0.319525 98.1675 0.513621 98.1741 0.552287 98.1741C0.675286 98.1741 2.37109 98.1078 4.67401 93.8523C6.94237 89.6606 8.83659 82.8038 8.83659 74.2821V3.50989H24.3006Z" fill="#E50914"/>
</svg>
